<svg width="31" height="32" viewBox="0 0 31 32" fill="none" xmlns="http://www.w3.org/2000/svg">
<path d="M0.483076 11.9061C2.52258 3.53376 10.8953 -1.63098 19.2143 0.489282C27.5333 2.55518 32.5784 11.0906 30.5389 19.5173C28.4994 27.944 20.073 33.0544 11.754 30.9885C3.48866 28.8682 -1.6101 20.3328 0.483076 11.9061Z" fill="#E42918"/>
<path d="M0.912476 10.4382H30.1096C28.3921 5.654 24.4741 1.79404 19.2143 0.489259C11.432 -1.46791 3.54236 2.93572 0.912476 10.4382Z" fill="#E42918"/>
<path d="M30.6463 18.9193C30.6463 18.8649 30.6463 18.8649 30.6463 18.8105C30.6463 18.7562 30.6463 18.7018 30.6999 18.6474C30.6999 18.5931 30.6999 18.5931 30.6999 18.5387C30.6999 18.4843 30.6999 18.43 30.7536 18.3756C30.7536 18.3212 30.7536 18.3212 30.7536 18.2669C30.7536 18.2125 30.7536 18.1038 30.8073 18.0494V17.995C30.8073 17.8863 30.8073 17.8319 30.861 17.7232V17.6688C30.861 17.6145 30.861 17.5601 30.861 17.4514C30.861 17.397 30.861 17.397 30.861 17.3426C30.861 17.2883 30.861 17.2339 30.861 17.1796C30.861 17.1252 30.861 17.1252 30.861 17.0708C30.861 17.0165 30.861 16.9621 30.861 16.9077C30.861 16.8534 30.861 16.8534 30.861 16.799C30.861 16.7446 30.861 16.6359 30.861 16.5815V16.5272C30.861 16.4184 30.861 16.3641 30.861 16.2553V16.201C30.861 16.1466 30.861 16.0379 30.861 15.9835C30.861 15.9291 30.861 15.9291 30.861 15.8748C30.861 15.8204 30.861 15.766 30.861 15.7117C30.861 15.6573 30.861 15.6573 30.861 15.6029C30.861 15.5486 30.861 15.4942 30.861 15.4398C30.861 15.3855 30.861 15.3855 30.861 15.3311C30.861 15.2767 30.861 15.2224 30.861 15.1137V15.0593C30.861 14.8962 30.861 14.6787 30.8073 14.5156V14.4613C30.8073 14.4069 30.8073 14.3525 30.8073 14.2438C30.8073 14.1894 30.8073 14.1894 30.8073 14.1351C30.8073 14.0807 30.8073 14.0263 30.8073 13.972C30.8073 13.9176 30.8073 13.9176 30.8073 13.8632C30.8073 13.8089 30.8073 13.7545 30.8073 13.6458V13.5914C30.8073 13.4283 30.7536 13.2109 30.7536 13.0478V12.9934C30.7536 12.939 30.7536 12.8303 30.6999 12.7759V12.7216C30.6999 12.6672 30.6999 12.6128 30.6463 12.5041V12.4497C30.6463 12.3954 30.6463 12.341 30.5926 12.2323V12.1779C30.5926 12.1235 30.5389 12.0148 30.5389 11.9604C30.5389 11.8517 30.4853 11.7973 30.4853 11.6886C30.3779 11.2537 30.2169 10.7644 30.0559 10.3295H0.912487C0.751474 10.8188 0.590461 11.3081 0.483119 11.8517C-0.0535925 13.972 -0.107264 16.0922 0.214763 18.1038C0.214763 18.1581 0.214763 18.2669 0.268434 18.3212V18.3756C0.268434 18.43 0.268434 18.5387 0.322105 18.5931V18.6474C0.322105 18.7018 0.322105 18.7562 0.375776 18.8649V18.9193C0.375776 18.9736 0.375776 19.028 0.429448 19.0823C0.429448 19.1367 0.429448 19.1367 0.429448 19.1911C0.429448 19.2454 0.429447 19.2998 0.483119 19.3542C0.483119 19.4085 0.483119 19.4629 0.53679 19.4629C0.53679 19.5173 0.590461 19.5716 0.590461 19.6804C0.590461 19.7347 0.644132 19.7891 0.644132 19.8435C0.644132 19.8978 0.644132 19.8978 0.644132 19.9522C0.644132 20.0066 0.697803 20.0609 0.697803 20.1153C0.697803 20.1697 0.697803 20.1697 0.697803 20.224C0.697803 20.2784 0.751474 20.3328 0.751474 20.3871C0.751474 20.4415 0.751474 20.4415 0.751474 20.4959C0.751474 20.5502 0.805145 20.6046 0.805145 20.659C0.805145 20.659 0.805145 20.7133 0.858816 20.7133C0.858816 20.7677 0.912487 20.8221 0.912487 20.8764V20.9308C0.912487 20.9852 0.912487 20.9852 0.966159 21.0395H30.0559C30.0559 20.9852 30.0559 20.9852 30.1096 20.9308C30.1632 20.8221 30.1632 20.7677 30.2169 20.659C30.2706 20.5502 30.2706 20.4415 30.3243 20.2784V20.224C30.3779 20.1153 30.3779 20.0066 30.4316 19.8978V19.8435C30.4853 19.6804 30.4853 19.5716 30.5389 19.4085C30.5389 19.2998 30.5926 19.2454 30.5926 19.1367C30.5926 19.0824 30.5926 19.0824 30.5926 19.028C30.6463 19.028 30.6463 18.9736 30.6463 18.9193Z" fill="#FFD300"/>
</svg>
