<svg width="33" height="32" viewBox="0 0 33 32" fill="none" xmlns="http://www.w3.org/2000/svg">
<mask id="mask0_30_280" style="mask-type:luminance" maskUnits="userSpaceOnUse" x="0" y="0" width="33" height="32">
<path d="M16.4731 0C9.49589 0 3.1627 4.78418 1.44523 11.9061C-0.594277 20.3328 4.45081 28.8138 12.7698 30.9341C21.0888 33 29.4615 27.8896 31.5547 19.4629C33.5942 11.0362 28.5491 2.55519 20.2301 0.434926C18.9957 0.163097 17.7076 0 16.4731 0Z" fill="white"/>
</mask>
<g mask="url(#mask0_30_280)">
<path d="M33.5943 0H-0.594238V33H33.5943V0Z" fill="url(#paint0_radial_30_280)"/>
</g>
<path d="M1.44523 11.9061C3.48473 3.47939 11.9111 -1.63099 20.2301 0.434906C28.5491 2.5008 33.5942 11.0362 31.5547 19.4629C29.5152 27.8896 21.0888 33 12.7698 30.9341C4.45081 28.8682 -0.594277 20.3328 1.44523 11.9061Z" fill="#24356B"/>
<path d="M27.4757 4.62108L21.2499 8.80724V0.76111C20.9278 0.652378 20.5521 0.543647 20.2301 0.434915C17.3319 -0.271839 14.38 -0.163108 11.6964 0.76111V8.80724L5.47055 4.67544C4.0751 6.14332 2.89434 7.88302 2.08927 9.84019L3.75307 10.9275H1.71357C1.60623 11.2537 1.49889 11.5799 1.44522 11.9061C0.693822 14.8962 0.908505 17.8863 1.76724 20.6046H3.80675L2.19661 21.6919C3.00168 23.5947 4.12877 25.3888 5.63156 26.8567L11.7501 22.7249V30.6079C12.1258 30.7166 12.4478 30.8254 12.8235 30.9341C15.7217 31.6408 18.6736 31.5321 21.3035 30.6623V22.7249L27.422 26.8567C28.8712 25.4432 30.0519 23.7034 30.857 21.7463L29.1932 20.6046H31.2864C31.3937 20.224 31.501 19.8435 31.6084 19.4629C32.3061 16.5272 32.1988 13.5914 31.34 10.9275H29.2468L30.9107 9.78582C30.1056 7.88302 28.9248 6.08895 27.4757 4.62108Z" fill="#F4F1EE"/>
<path d="M9.33487 10.9275L3.53839 7.06752C3.16269 7.66555 2.787 8.26357 2.51864 8.91596L5.52422 10.9275H9.33487ZM29.4079 7.01316C29.0322 6.41513 28.6028 5.87148 28.1198 5.32782L21.2499 9.94891V10.9275H23.6114L29.4079 7.01316ZM3.59206 24.4102C3.96776 25.0082 4.39713 25.5519 4.88017 26.0955L11.6964 21.5288V20.659H9.22753L3.59206 24.4102ZM31.7694 12.939H19.264V0.271806C17.3855 -0.054388 15.507 -0.054388 13.6822 0.271806V12.939H1.23053C0.908507 14.8418 0.908507 16.7446 1.23053 18.5931H13.6286V31.1515C15.507 31.5321 17.3855 31.4777 19.2104 31.1515V18.5931H31.662C32.0914 16.6903 32.0914 14.7875 31.7694 12.939ZM23.7724 20.6046L29.4079 24.4102C29.7836 23.8122 30.1593 23.2141 30.4276 22.5618L27.5294 20.6046H23.7724Z" fill="#E42918"/>
<path d="M21.2499 2.39209V3.42504C21.3035 3.20758 21.3572 3.04448 21.3572 2.88138C21.3572 2.71828 21.3035 2.55519 21.2499 2.39209Z" fill="#333A63"/>
<defs>
<radialGradient id="paint0_radial_30_280" cx="0" cy="0" r="1" gradientUnits="userSpaceOnUse" gradientTransform="translate(16.4881 15.7054) scale(15.5053 15.706)">
<stop stop-color="white"/>
<stop offset="0.7809" stop-color="white"/>
<stop offset="0.8225" stop-color="#F9F8F8"/>
<stop offset="0.885" stop-color="#E9E6E3"/>
<stop offset="0.9602" stop-color="#CEC8C2"/>
<stop offset="1" stop-color="#BEB6AD"/>
</radialGradient>
</defs>
</svg>
