<svg width="44" height="44" viewBox="0 0 44 44" fill="none" xmlns="http://www.w3.org/2000/svg">
<path d="M22.0001 44.0001C34.1504 44.0001 44.0001 34.1504 44.0001 22.0001C44.0001 9.84977 34.1504 0 22.0001 0C9.84977 0 0 9.84977 0 22.0001C0 34.1504 9.84977 44.0001 22.0001 44.0001Z" fill="#79C7C4"/>
<path d="M28.7348 16.6121C29.5613 16.6121 30.2314 15.9421 30.2314 15.1155C30.2314 14.2889 29.5613 13.6189 28.7348 13.6189C27.9082 13.6189 27.2382 14.2889 27.2382 15.1155C27.2382 15.9421 27.9082 16.6121 28.7348 16.6121Z" fill="white"/>
<path d="M22.0001 15.5645C18.5579 15.5645 15.7144 18.408 15.7144 21.8502C15.7144 25.2924 18.5579 28.1359 22.0001 28.1359C25.4423 28.1359 28.2858 25.2924 28.2858 21.8502C28.2858 18.408 25.4423 15.5645 22.0001 15.5645ZM22.0001 26.0407C19.7552 26.0407 17.9593 24.2448 17.9593 21.9998C17.9593 19.7549 19.7552 17.959 22.0001 17.959C24.245 17.959 26.0409 19.7549 26.0409 21.9998C26.0409 24.2448 24.245 26.0407 22.0001 26.0407Z" fill="white"/>
<path d="M27.0885 34.7211H16.9116C12.7211 34.7211 9.27893 31.2789 9.27893 27.0884V16.9115C9.27893 12.721 12.7211 9.27881 16.9116 9.27881H27.0885C31.279 9.27881 34.7212 12.721 34.7212 16.9115V27.0884C34.7212 31.2789 31.279 34.7211 27.0885 34.7211ZM16.7619 11.5237C13.7687 11.5237 11.5238 13.9183 11.5238 16.7618V26.9387C11.5238 29.9319 13.9184 32.1768 16.7619 32.1768H26.9389C29.9321 32.1768 32.177 29.7823 32.177 26.9387V16.7618C32.177 13.7686 29.7824 11.5237 26.9389 11.5237H16.7619Z" fill="white"/>
</svg>
