<svg width="44" height="44" viewBox="0 0 44 44" fill="none" xmlns="http://www.w3.org/2000/svg">
<path d="M22.0001 44.0001C34.1504 44.0001 44.0001 34.1504 44.0001 22.0001C44.0001 9.84977 34.1504 0 22.0001 0C9.84977 0 0 9.84977 0 22.0001C0 34.1504 9.84977 44.0001 22.0001 44.0001Z" fill="#79C7C4"/>
<path d="M33.6736 19.3063C33.5239 19.3063 33.2246 19.3063 33.0749 19.3063C30.6804 19.3063 28.2858 18.109 26.9388 16.0138V27.2383C26.9388 31.8778 23.1973 35.6193 18.5579 35.6193C13.9184 35.6193 10.1769 31.8778 10.1769 27.2383C10.1769 22.5988 13.9184 18.8573 18.5579 18.8573C18.7075 18.8573 18.8572 18.8573 19.0068 18.8573V22.8982C18.8572 22.8982 18.7075 22.8982 18.5579 22.8982C16.1633 22.8982 14.3674 24.8438 14.3674 27.0887C14.3674 29.3336 16.313 31.2791 18.5579 31.2791C20.9524 31.2791 23.0477 29.4832 23.0477 27.0887V7.93213H26.9388C27.2382 11.524 30.0817 14.2179 33.6736 14.5172V19.3063Z" fill="white"/>
</svg>
