<svg width="172" height="172" viewBox="0 0 172 172" fill="none" xmlns="http://www.w3.org/2000/svg">
<path d="M106.751 169.457C152.846 158.001 180.927 111.346 169.471 65.2511C158.015 19.1557 111.36 -8.92488 65.2647 2.53128C19.1693 13.9874 -8.9113 60.6421 2.54485 106.737C14.001 152.833 60.6557 180.913 106.751 169.457Z" fill="#79C7C4"/>
<path d="M105.334 163.755C148.28 153.081 174.442 109.614 163.768 66.6683C153.095 23.7224 109.628 -2.43971 66.6819 8.23373C23.7359 18.9072 -2.42614 62.3743 8.2473 105.32C18.9207 148.266 62.3878 174.428 105.334 163.755Z" fill="#332C28"/>
<path d="M55.0186 140.217C51.8137 141.019 49.4099 138.348 48.0745 132.472C47.2733 129.267 47.2733 127.13 47.8075 125.261C48.3416 123.658 49.4099 122.59 50.7453 122.323C52.0808 122.056 53.4162 122.323 54.4845 123.391C54.4845 123.925 54.2174 124.46 53.6832 124.727C52.882 123.925 52.0808 123.658 51.2795 123.925C49.1429 124.46 48.6087 127.13 49.9441 131.938C51.2795 136.745 52.882 138.882 55.0186 138.348C56.087 138.081 56.6211 137.547 56.8882 136.478C57.4224 136.478 57.9565 136.745 58.2236 137.279C57.4224 139.149 56.354 139.95 55.0186 140.217Z" fill="white"/>
<path d="M64.9006 119.118C65.1677 119.652 65.1677 120.453 64.9006 120.72C64.3665 120.72 63.8323 120.72 63.0311 120.72C62.2298 120.988 61.4286 121.255 60.8944 122.056L64.6335 137.279C64.3665 137.279 64.0994 137.547 63.8323 137.547C63.5652 137.547 63.2981 137.547 63.0311 137.547L59.0248 121.522C59.8261 120.186 60.8944 119.385 62.4969 119.118C63.5652 119.118 64.3665 119.118 64.9006 119.118Z" fill="white"/>
<path d="M79.0559 123.658C79.0559 124.193 79.323 124.46 79.323 124.727L72.1118 126.596C73.1801 131.404 75.0497 133.54 77.1863 133.006C78.2547 132.739 79.0559 131.938 79.323 130.87C79.8571 130.87 80.3913 131.137 80.6584 131.671C80.1242 133.273 79.0559 134.342 77.4534 134.609C74.2484 135.41 71.8447 132.739 70.5093 126.863C69.7081 123.925 69.7081 121.522 69.9752 119.919C70.5093 118.05 71.3106 117.248 72.646 116.714C73.9814 116.447 75.0497 116.714 76.118 118.05C77.4534 119.118 78.5217 120.988 79.0559 123.658ZM71.8447 125.261L77.7205 123.925C76.6522 119.919 75.3168 118.05 73.4472 118.584C72.646 118.851 71.8447 119.385 71.5776 120.72C71.3106 121.789 71.3106 123.391 71.8447 125.261Z" fill="white"/>
<path d="M86.5342 113.509C88.1367 113.242 89.4721 113.509 90.5404 114.845C91.6087 116.18 92.677 118.05 93.4783 120.988C94.2795 124.192 94.2795 126.596 94.0124 128.199C93.4783 130.068 92.41 131.137 90.8075 131.404C90.0062 131.671 89.205 131.671 88.4037 131.404L90.0062 138.348C89.7391 138.348 89.4721 138.615 89.205 138.615C88.9379 138.615 88.6708 138.615 88.4037 138.615L82.795 115.913C83.8634 114.578 84.9317 113.776 86.5342 113.509ZM90.2733 129.801C92.677 129.267 93.2112 126.329 91.8758 121.255C91.3416 118.851 90.5404 117.248 89.7391 116.18C88.9379 115.112 87.8696 114.845 86.8013 115.112C85.7329 115.379 85.1988 115.913 84.6646 116.447L87.8696 129.534C88.4037 130.068 89.4721 130.068 90.2733 129.801Z" fill="white"/>
<path d="M106.832 116.714C106.832 117.248 107.099 117.515 107.099 118.05L99.8882 119.919C100.957 124.727 102.826 126.863 104.963 126.329C106.031 126.062 106.832 125.261 107.099 124.193C107.634 124.193 108.168 124.46 108.435 124.994C107.901 126.596 106.832 127.665 105.23 127.932C102.025 128.733 99.6211 126.062 98.2857 120.186C97.4845 117.248 97.4845 114.845 97.7515 113.242C98.2857 111.373 99.0869 110.571 100.422 110.037C101.758 109.77 102.826 110.037 103.894 111.373C105.497 112.174 106.298 114.043 106.832 116.714ZM99.6211 118.317L105.497 116.981C104.429 112.975 103.093 111.106 101.224 111.64C100.422 111.907 99.6211 112.441 99.354 113.776C99.087 114.845 99.354 116.447 99.6211 118.317Z" fill="white"/>
<path d="M116.18 106.565C116.447 107.099 116.447 107.901 116.18 108.168C115.646 108.168 115.112 108.168 114.311 108.168C113.509 108.435 112.708 108.702 112.174 109.503L115.913 124.727C115.646 124.727 115.379 124.994 115.112 124.994C114.845 124.994 114.578 124.994 114.311 124.994L110.304 108.969C111.106 107.633 112.174 106.832 113.776 106.565C114.845 106.298 115.646 106.298 116.18 106.565Z" fill="white"/>
<path d="M120.186 103.627C119.652 103.627 119.385 103.36 119.385 103.093L120.721 97.4844C121.522 97.4844 122.056 97.7515 122.323 98.5528L120.186 103.627ZM126.062 122.323C125.795 122.323 125.528 122.323 125.261 122.323L120.988 105.23C121.255 105.23 121.255 104.963 121.789 104.963C122.056 104.963 122.323 104.963 122.59 104.963L126.863 122.056C126.596 122.323 126.329 122.323 126.062 122.323Z" fill="white"/>
<path d="M131.671 102.292C132.739 102.025 133.807 102.025 134.876 102.826C135.677 103.36 136.478 104.696 136.745 106.298L139.683 118.317C138.882 119.385 137.547 119.919 136.211 120.453C133.273 121.255 131.671 119.652 130.602 116.18C130.068 114.311 130.335 112.975 130.87 111.907C131.404 110.838 132.205 110.037 133.54 109.77C134.342 109.503 135.41 109.503 135.944 109.77L135.143 107.099C134.609 104.963 133.54 103.894 131.671 104.429C130.602 104.696 129.801 105.497 129.534 106.565C129 106.565 128.733 106.298 128.199 105.764C129 103.627 130.068 102.559 131.671 102.292ZM132.205 115.379C132.739 118.05 134.075 118.851 135.944 118.584C136.745 118.317 137.547 118.05 138.081 117.515L136.478 111.373C135.677 111.106 134.876 111.106 134.075 111.373C133.273 111.64 132.472 112.174 132.205 112.708C131.938 113.242 131.938 114.311 132.205 115.379Z" fill="white"/>
<path d="M38.4596 65.1677C41.3975 64.3664 44.0683 64.9006 46.4721 67.0372C48.6087 68.9068 50.2112 71.8447 51.2795 75.5838L59.2919 107.366C58.7578 107.901 57.9565 108.168 56.8882 108.435C56.087 108.702 55.2857 108.702 54.4845 108.702L47.0062 79.0559C45.6708 73.4472 43.2671 71.3105 39.795 72.1118C38.1925 72.6459 36.5901 73.7143 35.5217 75.5838C36.0559 76.9192 36.5901 78.2546 36.8571 79.323L44.8696 111.106C44.3354 111.64 43.5342 111.907 42.7329 112.174C41.6646 112.441 40.8634 112.441 40.0621 112.441L32.5839 82.795C31.2484 77.1863 28.8447 75.0497 25.3727 75.8509C23.7702 76.3851 22.1677 77.1863 21.0994 78.5217L30.1801 114.845C29.646 115.112 28.8447 115.646 28.0435 115.913C27.2422 116.18 26.1739 116.18 25.6398 116.18L15.7578 76.118C17.6273 72.6459 20.5652 70.2422 24.5714 69.1739C27.5093 68.3726 30.1801 68.9068 32.3168 70.7764C33.6522 67.5714 35.7888 65.7018 38.4596 65.1677Z" fill="white"/>
<path d="M57.4224 53.4161C56.8882 54.2174 56.354 54.7515 55.5528 54.7515C54.7516 55.0186 53.9503 54.7515 53.1491 54.4844C52.3478 53.9503 51.8137 53.4161 51.5466 52.6149C51.2795 51.8136 51.5466 51.0124 51.8137 50.2112C52.3478 49.4099 52.882 48.8758 53.9503 48.6087C54.7516 48.3416 55.5528 48.6087 56.354 48.8758C57.1553 49.4099 57.6894 49.9441 57.6894 51.0124C57.9565 52.0807 57.9565 52.882 57.4224 53.4161ZM67.8385 105.23C67.0373 105.497 66.236 105.497 65.4348 105.497L54.7516 62.4969C55.2857 61.9627 56.087 61.6956 57.1553 61.4285C57.9565 61.1615 59.0248 61.1615 59.559 61.1615L70.2422 104.161C69.7081 104.696 68.9068 104.963 67.8385 105.23Z" fill="white"/>
<path d="M90.0062 52.3478C92.9441 51.5466 95.6149 52.0807 98.0186 54.2174C100.155 56.0869 101.758 59.0248 102.826 62.7639L110.839 94.5466C110.304 95.0807 109.503 95.3478 108.435 95.6149C107.634 95.882 106.832 95.882 106.031 95.882L98.5528 66.236C97.2174 60.6273 94.8137 58.4907 91.3416 59.2919C89.7391 59.8261 88.1366 60.8944 87.0683 62.7639C87.6025 64.0993 88.1366 65.4348 88.4037 66.5031L96.4162 98.2857C95.882 98.8198 95.0807 99.0869 94.2795 99.354C93.2112 99.6211 92.4099 99.6211 91.6087 99.6211L83.8634 69.441C82.528 63.8323 80.1242 61.6956 76.6522 62.4969C75.0497 63.031 73.4472 63.8323 72.3789 65.1677L81.4596 101.491C80.9255 101.758 80.1242 102.292 79.323 102.559C78.5217 102.826 77.4534 102.826 76.9193 102.826L67.0373 62.7639C68.9068 59.2919 71.8447 56.8882 75.8509 55.8198C78.7888 55.0186 81.4596 55.5528 83.5963 57.4223C85.1988 54.7515 87.3354 52.882 90.0062 52.3478Z" fill="white"/>
<path d="M119.385 92.4099C118.584 92.677 117.783 92.677 116.981 92.677L106.298 49.677C106.832 49.1429 107.634 48.8758 108.702 48.6087C109.503 48.3416 110.571 48.3416 111.106 48.3416L121.789 91.3416C120.988 91.8758 120.186 92.1429 119.385 92.4099Z" fill="white"/>
<path d="M116.714 43.8012L121.255 32.0497C123.391 32.5838 124.994 33.6522 125.795 35.7888L119.118 45.9379C118.05 45.4037 117.248 44.8696 116.714 43.8012Z" fill="white"/>
<path d="M143.957 87.3354C141.286 87.8695 139.149 87.8695 137.547 86.8012C135.677 85.7329 134.342 84.6646 133.54 83.3292C134.075 81.1925 134.876 79.59 136.211 78.7888C137.814 80.9254 139.95 81.7267 142.621 81.1925C145.826 80.3913 146.894 78.2546 146.093 74.5155C145.559 72.3789 144.491 70.5093 143.422 69.441C142.087 68.3727 140.484 67.3043 138.348 66.7702C135.41 65.9689 133.273 64.6335 131.404 63.031C129.534 61.4286 128.199 58.7577 127.398 55.2857C126.596 51.8136 126.863 48.8758 127.932 46.472C129 44.0683 131.137 42.4658 133.807 41.6646C137.814 40.5963 141.019 41.9317 143.689 45.4037C143.155 47.2733 142.354 48.8758 141.286 49.9441C139.683 48.0745 137.547 47.2733 135.143 47.8074C132.205 48.6087 131.137 50.4782 131.938 53.6832C132.472 55.5528 133.273 56.8882 134.342 57.9565C135.41 59.0248 137.28 59.8261 139.416 60.6273C142.354 61.4286 144.758 62.764 146.627 64.6335C148.497 66.5031 150.099 69.1739 150.901 72.913C151.969 76.9192 151.702 80.3913 150.634 82.795C149.031 84.9317 146.894 86.5341 143.957 87.3354Z" fill="white"/>
<path d="M108.969 40.8633C108.435 41.6646 107.901 42.1987 107.099 42.1987C106.298 42.4658 105.497 42.1987 104.696 41.9317C103.894 41.3975 103.36 40.8633 103.093 40.0621C102.826 39.2608 103.093 38.4596 103.36 37.6584C103.894 36.8571 104.429 36.323 105.497 36.0559C106.298 35.7888 107.099 36.0559 107.901 36.323C108.702 36.8571 109.236 37.3913 109.236 38.4596C109.503 39.2608 109.236 40.0621 108.969 40.8633Z" fill="white"/>
</svg>
