<svg width="351" height="31" viewBox="0 0 351 31" fill="none" xmlns="http://www.w3.org/2000/svg">
<g clip-path="url(#clip0_88_824)">
<path fill-rule="evenodd" clip-rule="evenodd" d="M75.2568 8.71864H63.3278L61.6465 12.9492H66.6903L61.9668 24.9085L55.7221 4H48.9169L41.7915 27.9186H46.9154L48.3565 22.7119H53.2402L54.7613 27.9186H73.3354L75.0166 23.0373H69.8127L75.2568 8.71864ZM11.6888 8.71864L8.00604 23.6881H13.4502L11.929 28H0L5.12387 8.71864H11.6888ZM18.3338 24.583H23.0574L24.3384 28H31.3837L24.2583 8.71864H19.1344L12.7296 28H17.1329L18.3338 24.583ZM37.7085 18.4L40.5106 8.8H44.994L39.4698 28H33.9456L27.3807 8.8H34.6662L37.7085 18.4ZM19.6949 19.783L20.6556 16.6102L21.8565 19.783H19.6949ZM92.8701 24.583H97.5937L98.8746 28H106L98.7946 8.71864H93.6707L87.2659 28H91.6692L92.8701 24.583ZM94.2311 19.783L95.2719 16.6102L96.4728 19.783H94.2311ZM49.5574 18.0746L50.8384 13.1119L52.1994 18.0746H49.5574ZM76.2976 8.71864H88.3067L82.8625 23.1186H88.0665L86.3852 28H73.9758L79.6601 12.9492H74.6163L76.2976 8.71864Z" fill="white"/>
</g>
<g clip-path="url(#clip1_88_824)">
<path d="M125.724 12.8474C128.405 7.80493 133.075 2.28018 138.609 0.438594C139.733 0.131664 141.247 -0.175267 142.241 0.613983C143.149 1.27169 143.236 2.41172 143.063 3.46405C142.803 4.69178 141.982 6.22643 140.598 6.44567C140.339 6.44567 140.122 6.35797 139.993 6.18258C139.647 5.83181 139.647 5.30564 139.733 4.86717C139.949 3.90253 140.857 2.85019 141.852 2.71865C142.025 2.54326 141.938 2.32403 141.895 2.19248C141.765 1.97325 141.592 1.79786 141.333 1.75401C140.209 1.62247 139.387 2.32403 138.566 2.89404C135.366 5.52487 133.031 8.85727 131.042 12.2335C129.442 15.259 128.059 18.3721 127.67 21.8799C127.454 24.423 128.275 26.9223 130.523 28.1501C132.945 29.4655 136.101 28.5885 138.523 27.887L140.771 27.1854L145.052 25.87C149.116 24.6423 154.218 24.3792 158.196 26.0015C160.617 27.01 163.082 28.4131 164.638 30.8247C164.638 30.8686 164.638 30.9563 164.552 30.9563C161.136 29.9916 156.683 29.0708 153.31 30.737L153.137 30.6932C152.099 29.027 150.37 28.1062 148.597 27.7554C142.846 27.1854 138.133 29.9478 132.772 30.6493C130.048 30.9124 127.108 30.8247 125.205 28.6762C122.178 25.6508 122.568 20.2575 123.994 16.5744C124.513 15.3467 125.119 14.0751 125.724 12.8474Z" fill="white"/>
<path d="M133.637 14.6449C135.063 12.0141 137.269 8.76938 140.295 7.80475C141.117 7.62936 141.982 7.71705 142.587 8.24322C143.884 9.55864 143.365 11.7948 142.933 13.3733C142.933 13.461 143.019 13.5487 143.106 13.5926C144.273 13.5487 145.181 13.0226 146.046 12.1895C147.819 10.1725 149.764 7.49781 152.661 7.80475C153.224 7.89244 153.742 8.19937 154.045 8.72554C154.78 10.2163 154.045 11.8387 153.051 13.0226C152.661 13.4172 152.186 13.6803 151.624 13.5049C151.408 13.4172 151.235 13.198 151.148 12.9787C150.932 11.9264 151.537 10.9617 152.359 10.4356C152.575 10.2163 153.31 10.3479 153.137 9.82172C153.007 9.60248 152.748 9.60248 152.532 9.55864C151.105 10.1725 150.197 11.6195 149.375 12.8472C148.338 14.5134 147.516 16.2234 146.954 18.1088C146.824 18.7666 146.608 19.6435 146.997 20.2574C147.3 20.652 147.732 20.8274 148.251 20.6958C149.635 20.1258 150.889 18.9858 151.97 17.8019C154.434 14.8203 155.731 11.1371 159.017 8.68169C160.055 7.98013 161.482 7.41012 162.693 8.06783C162.909 8.15552 163.039 8.41861 163.298 8.33091C163.514 8.11168 163.644 7.71705 164.033 7.80475C164.941 7.80475 165.979 7.7609 166.93 7.84859L166.973 7.93629L166.714 8.594L161.612 19.1173C161.482 19.1612 161.439 19.2927 161.482 19.4243C161.569 19.5558 161.741 19.5558 161.871 19.512C162.606 19.0735 163.168 18.2842 163.687 17.6265C164.12 17.0127 164.552 16.355 164.855 15.6534C164.984 15.4342 165.157 15.2149 165.417 15.2588C165.719 15.3026 166.065 15.1711 166.282 15.3903C165.936 16.2673 165.46 17.0565 164.984 17.8896C163.601 20.0381 161.785 22.5813 159.234 23.1951C158.801 23.239 158.282 23.2828 157.98 22.9759C157.504 22.5813 157.461 22.0113 157.331 21.4412C157.288 21.3974 157.201 21.3535 157.115 21.3974C156.034 22.4059 154.91 23.3705 153.397 23.1951C152.921 23.1074 152.488 22.7128 152.272 22.2743C151.883 21.4851 152.056 20.5204 152.056 19.6435C152.013 19.5558 151.883 19.5997 151.84 19.5997C150.197 21.2658 148.381 22.7567 146.176 23.1513C145.138 23.2828 144.273 22.9759 143.581 22.2305C141.938 20.0381 143.236 17.1881 144.1 15.0395C144.144 14.9518 144.144 14.8203 144.014 14.7765C143.408 14.8203 142.846 14.908 142.284 14.9957L142.068 15.2149C140.728 17.7142 139.301 20.3889 136.879 22.2743C135.885 23.0197 134.415 23.5021 133.247 22.8443C132.037 22.0113 131.907 20.4766 132.08 19.0735C132.426 17.5388 132.988 16.0919 133.637 14.6449ZM137.442 14.5134C136.75 15.9603 136.015 17.4073 136.015 19.0735C136.101 19.3804 136.274 19.775 136.62 19.8627C137.009 19.9504 137.312 19.775 137.571 19.5558C138.955 18.3719 139.906 16.7934 140.684 15.2588C140.728 15.1272 140.857 14.908 140.771 14.7765C139.949 14.4257 139.171 13.8557 138.523 13.1541H138.393C138.263 13.198 138.22 13.2857 138.133 13.3733L137.442 14.5134ZM139.603 11.6195C139.647 12.3649 140.339 13.0226 140.987 13.2857C141.16 13.3295 141.42 13.461 141.549 13.2418C141.809 12.7595 141.938 12.2333 142.068 11.7072C142.198 11.0056 142.284 10.0848 141.636 9.64633C141.419 9.51479 141.074 9.51479 140.857 9.60248C140.122 9.99711 139.56 10.7425 139.603 11.6195ZM156.38 17.495C156.207 18.1088 155.904 18.8104 156.121 19.512C156.164 19.6435 156.337 19.7312 156.466 19.775C157.029 19.775 157.418 19.2927 157.764 18.8543C159.407 16.5742 160.661 14.0749 161.785 11.5756C161.958 11.0494 162.26 10.5671 162.26 9.95326C162.26 9.82172 162.131 9.73402 162.044 9.69018C161.785 9.55864 161.569 9.73402 161.352 9.86557C159.147 11.5756 157.98 14.0311 156.856 16.3988L156.38 17.495Z" fill="white"/>
<path d="M167.017 11.0057C167.492 10.041 167.925 8.98871 168.53 8.06792C168.789 7.80483 169.178 7.80483 169.481 7.76099L171.946 7.80483L172.032 7.89253C171.6 8.90101 171.167 9.86565 170.649 10.8303C170.519 11.0934 170.259 11.3126 169.957 11.3565C168.962 11.3565 167.925 11.4442 166.973 11.3565C166.887 11.2688 166.973 11.1372 167.017 11.0057Z" fill="white"/>
<path d="M169.481 16.0481C171.167 12.4965 173.243 9.03257 176.14 6.00711C178.95 3.15704 182.02 0.833134 185.695 0.131578C186.69 3.65679e-05 187.814 0.087731 188.592 0.789287C188.722 0.920829 188.895 1.05237 189.111 0.964676C191.749 -0.0876579 195.424 -0.482283 198.105 0.876981C199.661 1.62238 201.088 2.63087 202.558 3.55166C202.731 3.63936 202.645 3.85859 202.558 3.94629C201.694 4.91093 201.002 5.87557 200.224 6.88405C200.137 6.97175 200.007 6.9279 199.921 6.88405L196.029 4.16552C194.213 2.89395 192.095 2.01701 189.76 2.41163C189.5 2.54318 189.63 2.89395 189.587 3.11319C189.63 5.56864 188.765 7.71715 187.598 9.69028C186.647 11.0495 185.566 12.4965 183.966 12.935C183.274 13.0665 182.582 12.8473 182.193 12.3211C181.026 10.5234 182.063 8.33101 182.928 6.75251C183.923 4.99862 185.393 3.37627 187.036 2.14855C187.079 2.1047 187.166 2.01701 187.079 1.92932C186.906 1.75393 186.647 1.88547 186.431 1.88547C183.793 2.76241 181.674 5.17401 179.729 7.41022C176.226 11.7511 173.589 16.4866 172.075 21.7044C171.6 23.6337 170.994 26.6592 172.94 28.0184C174.67 28.9392 176.313 27.7553 177.61 26.6153C179.599 24.5983 180.896 22.2306 181.458 19.5998C181.545 18.8105 181.761 17.7143 181.026 17.1882C180.377 16.8812 179.858 17.4512 179.426 17.8897C178.431 19.1174 177.999 20.6082 177.826 22.1867C177.394 22.5814 176.832 22.8006 176.356 23.1514C175.448 23.7652 174.583 24.5983 173.848 25.4753C173.762 25.5191 173.762 25.3876 173.718 25.3437C173.632 22.406 174.626 19.9067 176.226 17.6705C177.48 16.1797 179.123 14.9081 181.069 15.3904C181.934 15.6097 182.496 16.5304 182.669 17.3635C182.971 20.1259 181.847 22.4937 180.637 24.7299C178.648 27.8869 175.534 31.0439 171.6 30.6493C170.086 30.5616 168.66 29.5092 168.054 28.0623C166.584 25.0368 167.579 21.1783 168.616 18.2405L169.481 16.0481ZM182.885 10.8742C182.928 11.2249 183.058 11.5757 183.404 11.7073C184.052 11.8826 184.615 11.4003 185.09 11.0057C186.863 9.07642 187.987 6.84021 188.247 4.29707C188.247 3.90244 188.376 3.42012 188.16 3.11319C188.03 3.06934 187.857 3.15704 187.728 3.24473C186.517 4.07783 185.393 5.26171 184.571 6.44558C183.707 7.80485 182.928 9.16411 182.885 10.8742Z" fill="white"/>
<path d="M185.393 19.3806C186.82 17.4513 188.722 15.3467 191.144 15.2151C191.749 15.2151 192.268 15.4782 192.657 16.0044C193.695 17.539 192.83 19.5122 192.441 21.0907C192.397 21.2222 192.484 21.3099 192.614 21.3538C193.089 21.4415 193.695 21.3538 194.127 21.1345L194.3 20.9153C196.029 15.9167 198.624 11.2689 201.65 6.84032C203.553 4.29718 206.017 1.62249 208.828 0.394772C209.52 0.175536 210.471 -0.131395 211.12 0.394772C211.855 1.00863 211.638 2.01712 211.466 2.80637C211.379 3.50793 210.601 3.59562 210.125 3.72716C210.082 3.72716 210.082 3.72716 210.039 3.68332C210.039 3.24484 210.298 2.85022 210.385 2.3679C210.428 2.14866 210.428 1.92943 210.341 1.71019C210.212 1.49095 209.952 1.57865 209.779 1.62249C208.828 2.10481 208.05 2.98176 207.315 3.81486C204.591 7.05955 202.602 10.6112 200.742 14.2505C200.137 15.5221 199.532 16.7498 199.013 18.0652C199.013 18.1529 199.013 18.1968 199.099 18.2406C199.532 18.2406 199.791 17.8021 200.094 17.5829C202.515 15.3467 204.461 12.8035 206.277 10.2166C206.666 10.0412 207.098 10.0412 207.574 9.99732L207.661 10.0412C207.617 10.3919 207.315 10.655 207.185 10.962C205.153 13.8997 202.861 16.7498 200.094 19.2929L198.062 20.9591C197.629 21.3538 197.629 21.9238 197.413 22.4061C197.024 23.7215 196.635 25.0369 196.592 26.44C196.592 26.6593 196.678 26.9224 196.894 27.0539C197.413 27.2731 197.845 26.7908 198.235 26.44C200.959 23.2392 202.169 19.3368 205.499 16.4429C206.58 15.5659 208.05 14.8205 209.433 15.4782C209.693 15.5659 209.866 15.9167 210.168 15.7413C210.385 15.6098 210.385 15.259 210.687 15.259C211.682 15.259 212.719 15.2151 213.671 15.3028C213.757 15.3905 213.714 15.5221 213.671 15.6098L212.979 17.0129L208.785 25.5631C208.612 25.9577 208.352 26.3523 208.352 26.7908C208.396 26.9662 208.612 27.01 208.785 26.9662C209.563 26.5277 210.125 25.7823 210.644 25.0808C211.163 24.3354 211.552 23.59 212.071 22.8446C212.33 22.713 212.676 22.7569 212.979 22.8007C213.152 22.9761 212.936 23.1953 212.892 23.3707C211.682 25.9577 209.952 28.7639 207.271 30.1671C206.666 30.474 205.801 30.7809 205.109 30.3863C204.547 29.9917 204.634 29.334 204.374 28.7639C204.331 28.6762 204.201 28.7201 204.158 28.7201C203.034 29.7286 201.867 30.8686 200.31 30.4301C199.359 29.9917 199.229 28.8516 199.143 27.887C199.099 27.8431 199.099 27.7555 199.056 27.7555L198.926 27.7993C197.845 29.1147 196.462 30.7809 194.646 30.6055C193.954 30.5617 193.349 29.8601 193.132 29.2463C192.484 27.1854 193.176 24.9492 193.608 22.9761C193.608 22.8446 193.478 22.7569 193.392 22.7569H191.879L191.619 23.0638C190.495 25.3 189.241 27.4485 187.295 29.334C186.258 30.2547 185.004 31.0002 183.62 30.6055C182.453 30.0794 182.15 28.8078 182.15 27.6239C182.409 24.4231 183.75 21.8361 185.393 19.3806ZM185.782 26.2208C185.825 26.6593 185.998 27.0977 186.431 27.2293C186.733 27.317 187.036 27.1854 187.295 27.0977C188.722 26.0016 189.587 24.3792 190.365 22.8446C190.452 22.713 190.495 22.4499 190.322 22.3622C189.587 21.9676 188.852 21.3976 188.247 20.7399C188.16 20.6522 188.03 20.6522 187.944 20.696C187.425 21.4415 187.036 22.2307 186.69 23.02C186.258 24.0284 185.782 25.0369 185.782 26.2208ZM189.414 19.1614C189.457 19.9506 190.063 20.6522 190.754 20.9153C190.884 20.9591 191.144 21.0468 191.23 20.8714C191.662 19.9068 192.052 18.7668 191.835 17.6267C191.749 17.3637 191.533 17.1006 191.273 17.0129C191.014 16.9252 190.711 17.0129 190.495 17.1444C189.76 17.5829 189.414 18.3721 189.414 19.1614ZM203.077 25.87C203.034 26.2208 202.948 26.7031 203.25 26.9662C203.38 27.0977 203.639 27.1416 203.812 27.0539C204.547 26.6593 205.023 25.87 205.455 25.2123C206.969 22.8446 208.05 20.3453 209.087 17.7583C209.131 17.539 209.174 17.2321 208.958 17.0567C208.352 16.7498 207.877 17.4513 207.444 17.7583C205.455 19.7314 204.418 22.1869 203.423 24.5984L203.077 25.87Z" fill="white"/>
<path d="M205.974 7.1032L207.315 5.34932L207.531 5.17393C211.336 5.08623 214.362 2.80618 217.043 0.0876465C217.043 0.438424 216.87 0.789202 216.741 1.13998C214.968 5.34932 210.687 9.03248 206.061 9.12018H204.98C204.764 9.07633 204.937 8.85709 204.98 8.7694L205.974 7.1032Z" fill="white"/>
<path d="M210.774 29.3338C210.774 28.8077 211.163 28.413 211.682 28.413C212.157 28.413 212.59 28.8077 212.59 29.3338C212.59 29.86 212.201 30.2546 211.682 30.2546C211.206 30.2546 210.774 29.86 210.774 29.3338ZM211.682 30.4739C212.287 30.4739 212.806 29.9915 212.806 29.3777C212.806 28.72 212.287 28.2815 211.682 28.2815C211.076 28.2815 210.557 28.7638 210.557 29.3777C210.557 29.9915 211.076 30.4739 211.682 30.4739ZM211.466 29.4215H211.682L212.028 29.9915H212.244L211.898 29.4215C212.071 29.3777 212.244 29.29 212.244 29.0707C212.244 28.8077 212.114 28.72 211.811 28.72H211.336V29.9915H211.509V29.4215H211.466ZM211.466 29.2461V28.8515H211.725C211.855 28.8515 211.984 28.8954 211.984 29.0269C211.984 29.2023 211.855 29.2461 211.682 29.2461H211.466Z" fill="white"/>
</g>
<g clip-path="url(#clip2_88_824)">
<path d="M245.853 8.30225C243.789 8.30225 241.991 9.03198 240.459 10.3588V8.76662H234V28.4693H240.459V16.5283C240.459 14.8035 241.658 13.344 243.456 13.344C245.254 13.344 246.253 14.8035 246.253 16.5283V28.4693H252.845V15.0025C252.912 10.8895 249.915 8.30225 245.853 8.30225Z" fill="white"/>
<path d="M284.875 2.19897L278.216 4.52084V8.7002H275.486V13.941H278.216V23.4275C278.216 26.2137 280.281 28.4029 283.077 28.4029H288.671V23.4275H286.274C285.009 23.4275 284.809 22.3661 284.809 21.3046V13.941H288.671V8.76654H284.809V2.19897H284.875Z" fill="white"/>
<path d="M299.858 8.03687C294.131 8.03687 289.27 12.6143 289.27 18.3858C289.27 24.3563 294.131 28.9337 300.058 28.9337C304.786 28.9337 308.582 26.0148 309.78 21.57H302.921C302.189 22.7641 300.99 23.4939 299.592 23.4939C297.461 23.4939 296.396 22.2334 296.063 20.2433H309.913C310.113 19.5135 310.18 18.7175 310.113 17.9214C309.714 12.3489 305.652 8.03687 299.858 8.03687ZM296.262 16.1302C296.595 14.4054 297.861 13.344 299.659 13.344C301.39 13.344 302.788 14.4054 302.988 16.1302H296.262Z" fill="white"/>
<path d="M344.141 8.70015V9.82791C342.543 8.70015 340.745 8.16943 338.747 8.16943C333.02 8.16943 328.559 12.5478 328.559 18.253C328.559 24.2235 333.154 28.8009 339.147 28.8009C340.945 28.8009 342.743 28.4028 344.141 27.2087V28.3365H351V8.70015H344.141ZM340.079 23.0294C337.615 23.0294 335.751 20.9065 335.751 18.5183C335.751 16.1301 337.615 13.9409 340.079 13.9409C342.543 13.9409 344.408 16.0638 344.408 18.452C344.408 20.8402 342.543 23.0294 340.079 23.0294Z" fill="white"/>
<path d="M318.237 2H311.512V28.4029H318.237V2Z" fill="white"/>
<path d="M327.693 2H320.968V28.4029H327.693V2Z" fill="white"/>
<path d="M267.828 20.5749C267.828 22.167 266.629 23.3611 265.031 23.3611C263.367 23.3611 262.234 22.167 262.234 20.5749V8.7002H255.575V21.968C255.575 26.2137 258.239 28.8009 262.501 28.8009C264.698 28.8009 266.363 28.1375 267.828 26.6117V28.4029H274.421V8.7002H267.828V20.5749Z" fill="white"/>
</g>
<defs>
<clipPath id="clip0_88_824">
<rect width="106" height="24" fill="white" transform="translate(0 4)"/>
</clipPath>
<clipPath id="clip1_88_824">
<rect width="94" height="31" fill="white" transform="translate(123)"/>
</clipPath>
<clipPath id="clip2_88_824">
<rect width="117" height="27" fill="white" transform="translate(234 2)"/>
</clipPath>
</defs>
</svg>
