<svg width="240" height="198" viewBox="0 0 240 198" fill="none" xmlns="http://www.w3.org/2000/svg">
<g clip-path="url(#clip0_55_983)">
<path d="M149.522 96.4507C147.823 97.7253 144.425 98.5751 139.327 98.5751C133.805 98.5751 129.558 98.1502 125.735 97.3004C122.336 96.4507 118.938 95.176 115.54 93.0515C109.168 88.8026 106.195 80.3047 106.195 67.1331V47.1631H99.823C98.9735 47.1631 98.1239 46.3133 97.2743 44.1888C96.4248 42.0644 96.4248 39.515 96.4248 36.1159C96.4248 32.7167 96.8496 29.7425 98.1239 27.1931C98.9735 24.6438 100.673 23.3691 102.372 23.3691H106.619V8.92275C106.619 6.37339 109.168 4.24893 114.265 2.54936C118.938 0.849786 124.035 0 128.708 0C136.354 0 140.177 1.69957 140.177 5.52361V23.794H149.522C151.646 23.794 152.92 26.7682 152.92 33.1416C152.92 37.3906 152.496 40.7897 151.646 43.3391C150.796 45.8884 149.522 47.1631 147.823 47.1631H140.177V70.5322C140.177 72.6567 141.027 74.3562 143.15 75.206C145.274 76.0558 146.973 76.4807 148.248 76.4807C149.522 76.4807 150.796 77.3305 150.796 78.6052C151.221 79.8798 151.221 82.0043 151.221 84.9786C151.646 91.7768 150.796 95.176 149.522 96.4507Z" fill="#332C28"/>
<path d="M199.646 99C193.274 99 187.752 98.5751 183.504 97.3005C178.832 96.0258 175.009 94.3262 171.186 91.352C163.54 85.8284 159.717 75.2061 159.717 60.3348C159.717 46.7382 163.54 36.9657 171.611 31.4421C178.832 25.9185 188.602 23.3691 200.071 23.3691C205.168 23.3691 209.416 23.794 212.814 24.2189C216.212 24.6438 220.035 25.4936 223.858 27.1932C227.681 28.8927 230.655 30.5923 232.779 33.5666C234.903 36.1159 237.027 39.94 238.301 44.6138C239.575 49.2876 240.425 54.8112 240.425 61.1846C240.425 73.9314 236.602 83.7039 229.381 90.0773C221.735 95.6009 211.965 99 199.646 99ZM195.398 74.3563C195.823 77.3305 196.673 79.0301 197.097 79.8799C197.522 80.3048 198.372 80.7297 199.646 80.7297C200.496 80.7297 201.345 80.3048 202.195 79.8799C202.619 79.455 203.469 77.3305 203.894 74.3563C204.319 71.382 204.743 67.558 204.743 62.8842C204.743 58.2103 204.743 54.8112 204.319 52.2618C204.319 49.7125 203.894 48.0129 203.469 46.3133C203.044 45.0387 202.619 43.764 202.195 43.3391C201.345 42.0644 200.496 41.6395 199.646 41.6395C198.796 41.6395 197.522 42.0644 197.097 42.4893C196.248 42.9142 195.823 45.0387 195.398 48.0129C194.973 50.9872 194.549 55.661 194.549 61.1846C194.549 66.7082 194.549 70.9571 195.398 74.3563Z" fill="#332C28"/>
<path d="M82.8319 169.957V162.734H81.9823C81.5575 163.159 81.1327 163.584 80.2832 164.434C79.4336 164.858 77.3097 166.133 73.9115 166.983C70.5133 168.258 66.6903 168.683 62.4425 168.683C58.1947 168.683 54.7965 168.258 51.823 166.983C48.8496 165.708 46.7257 163.584 45.0266 161.459C43.3274 159.76 42.0531 157.21 41.2035 153.811C39.9292 148.713 39.0797 141.914 39.0797 133.416C39.0797 123.644 41.2035 115.996 45.4513 110.897C47.1504 108.773 49.2743 107.073 52.6726 105.373C55.646 104.099 59.0443 103.249 62.8673 103.249C66.6903 103.249 69.6637 103.674 71.7876 104.524C74.3363 105.373 76.0354 106.223 77.3097 107.498C79.8584 110.047 81.1328 111.747 81.5575 113.871V115.146H82.4071L83.6814 110.047C84.531 106.648 91.3274 104.524 103.646 104.524C109.168 104.524 112.566 105.373 113.841 107.073C114.69 107.923 115.115 109.198 115.115 110.047C115.115 110.897 115.54 112.172 115.54 113.871V166.983C115.54 176.755 112.142 184.404 105.77 189.927C99.3982 195.026 89.6283 197.575 77.3097 197.575C64.1416 197.575 54.7965 196.301 50.1239 193.751C48 192.477 47.1504 191.202 47.1504 189.927C47.1504 187.803 48 184.404 49.6991 179.73C51.3982 175.056 53.0974 172.507 54.3717 172.507C54.7965 172.507 56.0708 172.931 57.7699 173.356C64.1416 175.056 69.2389 175.906 73.4867 175.906C77.3097 175.906 80.2832 175.481 81.5575 174.206C81.9823 173.781 82.8319 172.082 82.8319 169.957ZM77.7345 153.811C78.5841 153.811 79.4336 153.386 79.8584 152.961C80.2832 152.112 80.708 151.687 80.708 150.837V124.919C80.2832 123.219 79.4336 122.369 77.7345 122.369C74.3363 122.369 73.062 127.468 73.062 138.09C73.062 143.189 73.4867 147.013 74.3363 149.987C75.1858 152.537 76.4602 153.811 77.7345 153.811Z" fill="#332C28"/>
<path d="M163.115 179.305C156.743 179.305 151.221 178.88 146.973 177.605C142.301 176.33 138.478 174.631 134.655 171.657C127.009 166.133 123.186 155.511 123.186 140.639C123.186 127.043 127.009 117.27 135.08 111.747C142.301 106.223 152.071 103.674 163.54 103.674C168.637 103.674 172.885 104.099 176.283 104.524C179.681 104.949 183.504 105.798 187.327 107.498C191.15 109.197 194.124 110.897 196.248 113.871C198.372 116.421 200.496 120.245 201.77 124.918C203.044 129.592 203.894 135.116 203.894 141.489C203.894 154.236 200.071 164.009 192.85 170.382C185.204 175.906 175.434 179.305 163.115 179.305ZM158.442 154.661C158.867 157.635 159.717 159.335 160.142 160.185C160.566 160.609 161.416 161.034 162.69 161.034C163.54 161.034 164.389 160.609 165.239 160.185C165.664 159.76 166.513 157.635 166.938 154.661C167.363 151.687 167.788 147.863 167.788 143.189C167.788 138.515 167.788 135.116 167.363 132.567C167.363 130.017 166.938 128.318 166.513 126.618C166.089 125.343 165.664 124.069 165.239 123.644C164.389 122.369 163.54 121.944 162.69 121.944C161.841 121.944 160.566 122.369 160.142 122.794C159.292 123.219 158.867 125.343 158.442 128.318C158.018 131.292 157.593 135.966 157.593 141.489C157.593 147.013 158.018 151.687 158.442 154.661Z" fill="#332C28"/>
<path d="M35.2566 78.1803C33.5575 78.1803 31.8584 77.3305 30.5841 76.0558L1.69912 47.1631C-0.849555 44.6138 -0.849555 40.3648 1.69912 37.8155L30.5841 8.92276C33.1327 6.3734 37.3805 6.3734 39.9292 8.92276C42.4779 11.4721 42.4779 15.721 39.9292 18.2704L15.7168 42.4893L39.9292 66.7082C42.4779 69.2575 42.4779 73.5065 39.9292 76.0558C39.0797 77.7554 37.3805 78.1803 35.2566 78.1803Z" fill="#79C7C4"/>
<path d="M78.5841 78.1802C76.885 78.1802 75.1858 77.3304 73.9115 76.0557L45.0266 47.163C42.4779 45.0386 42.4779 40.7896 45.0266 38.2403L73.9115 9.34756C76.4602 6.79821 80.708 6.79821 83.2566 9.34756C85.8053 11.8969 85.8053 16.1458 83.2566 18.6952L59.0443 42.9141L83.2566 67.133C85.8053 69.6823 85.8053 73.9313 83.2566 76.4806C81.9823 77.7553 80.2832 78.1802 78.5841 78.1802Z" fill="#79C7C4"/>
</g>
<defs>
<clipPath id="clip0_55_983">
<rect width="240" height="198" fill="white"/>
</clipPath>
</defs>
</svg>
