<svg width="257" height="191" viewBox="0 0 257 191" fill="none" xmlns="http://www.w3.org/2000/svg">
<g clip-path="url(#clip0_34_377)">
<path d="M70.9405 155.735C70.9405 157.432 70.0909 159.129 68.8165 160.402L39.9306 189.258C37.3818 191.804 33.1339 191.804 30.5851 189.258L1.69917 160.402C-0.849593 157.856 -0.849593 153.613 1.69917 151.067C4.24793 148.521 8.49586 148.521 11.0446 151.067L35.2579 175.254L59.4711 151.067C62.0198 148.521 66.2678 148.521 68.8165 151.067C70.0909 152.34 70.9405 154.037 70.9405 155.735Z" fill="#79C7C4"/>
<path d="M70.9405 112.451C70.9405 114.149 70.0909 115.846 68.8165 117.119L39.9306 145.975C37.3818 148.521 33.1339 148.521 30.5851 145.975L1.69917 117.119C-0.849593 114.573 -0.849593 110.33 1.69917 107.784C4.24793 105.238 8.49586 105.238 11.0446 107.784L35.2579 131.971L59.4711 107.784C62.0198 105.238 66.2678 105.238 68.8165 107.784C70.0909 109.057 70.9405 110.754 70.9405 112.451Z" fill="#79C7C4"/>
<path d="M54.3735 96.3263C52.6744 97.5994 49.276 98.4481 44.1785 98.4481C39.081 98.4481 33.9834 98.4481 30.5851 97.5994C27.1868 96.7507 23.7884 95.4777 20.3901 93.3559C14.0182 89.1125 11.0446 80.6256 11.0446 67.4709V47.5267H4.6727C3.82311 47.5267 2.97353 46.678 2.12394 44.5562C1.27435 42.4345 1.27435 40.3128 1.27435 36.918C1.27435 33.5233 1.69915 30.5528 2.97353 28.0068C3.82311 25.4607 5.52229 24.1877 7.22146 24.1877H11.4694V8.91125C11.4694 6.36518 14.0182 4.24345 19.1157 2.54607C23.7884 0.84869 28.8859 0 33.5587 0C41.2049 0 45.0281 1.69738 45.0281 5.51649V23.7633H54.3735C56.4975 23.7633 57.7719 26.7337 57.7719 33.0989C57.7719 37.3424 57.3471 40.7371 56.4975 43.2832C55.6479 45.8293 54.3735 47.1023 52.6744 47.1023H45.0281V70.4413C45.0281 72.563 45.8777 74.2604 48.0016 75.1091C50.1256 75.9578 51.8248 76.3821 53.0992 76.3821C54.3735 76.3821 55.6479 77.2308 55.6479 78.5038C56.0727 79.7769 56.0727 81.8986 56.0727 84.869C56.4975 91.6585 55.6479 95.0533 54.3735 96.3263Z" fill="#332C28"/>
<path d="M104.499 98.8723C98.1272 98.8723 92.6049 98.448 88.357 97.1749C83.6842 95.9019 79.8611 94.2045 76.038 91.2341C68.3917 85.7176 64.5685 75.109 64.5685 60.2569C64.5685 46.6779 68.3917 36.9179 76.4628 31.4014C83.6843 25.8849 93.4545 23.3389 104.924 23.3389C110.021 23.3389 114.269 23.7632 117.668 24.1876C121.066 24.6119 124.889 25.4606 128.712 27.158C132.536 28.8554 135.509 30.5527 137.633 33.5232C139.757 36.0692 141.881 39.8883 143.155 44.5561C144.43 49.2239 145.279 54.7404 145.279 61.1056C145.279 73.8359 141.456 83.5959 134.235 89.9611C126.588 95.4775 116.818 98.8723 104.499 98.8723ZM100.251 74.2603C100.676 77.2307 101.526 78.9281 101.95 79.7768C102.375 80.2011 103.225 80.6255 104.499 80.6255C105.349 80.6255 106.198 80.2011 107.048 79.7768C107.473 79.3524 108.322 77.2307 108.747 74.2603C109.172 71.2899 109.597 67.4708 109.597 62.803C109.597 58.1352 109.597 54.7404 109.172 52.1943C109.172 49.6483 108.747 47.9509 108.322 46.2535C107.897 44.9805 107.473 43.7074 107.048 43.2831C106.198 42.0101 105.349 41.5857 104.499 41.5857C103.65 41.5857 102.375 42.0101 101.95 42.4344C101.101 42.8587 100.676 44.9805 100.251 47.9509C99.8264 50.9213 99.4016 55.5891 99.4016 61.1056C99.4016 66.6221 99.4016 70.8655 100.251 74.2603Z" fill="#332C28"/>
<path d="M116.393 179.074C102.375 179.074 92.1801 177.801 85.8082 174.83C82.4099 173.557 80.7107 171.86 80.7107 170.587C80.7107 167.192 81.5603 162.949 83.6843 158.281C85.8082 153.613 87.5074 151.491 89.2066 151.491C90.0561 151.491 93.0297 152.34 97.7024 154.462C102.375 156.159 106.623 157.432 110.021 157.432C113.42 157.432 115.544 157.432 116.818 157.008C117.668 156.583 118.517 155.735 118.517 154.462C118.517 153.189 117.668 152.34 115.969 151.491C114.269 150.643 112.145 150.218 109.597 150.218C107.048 149.794 104.499 149.37 101.526 148.521C98.552 147.672 96.0033 146.824 93.4545 145.55C90.9057 144.277 88.7818 142.58 87.0826 139.61C85.3834 137.064 84.5338 134.093 84.5338 130.698C84.5338 127.304 84.5338 125.182 84.9586 123.485C84.9586 121.787 85.8082 119.665 87.0826 116.695C88.357 113.725 90.0562 111.603 92.1801 109.905C94.3041 108.208 97.7024 106.511 102.375 105.238C107.048 103.965 112.145 103.116 118.093 103.116C124.04 103.116 128.712 103.116 132.535 103.54C136.359 103.965 139.757 104.389 141.881 104.813C144.005 105.238 146.129 106.086 147.403 106.935C149.952 108.208 151.226 109.481 151.226 111.179C151.226 114.573 149.952 118.392 147.828 122.636C145.279 126.879 143.58 129.001 142.306 129.001C141.031 129.001 138.058 128.152 133.385 126.879C128.712 125.606 125.314 124.758 123.19 124.758C119.792 124.758 117.668 125.606 117.668 127.728C117.668 129.001 118.942 129.85 121.491 130.698C124.04 131.123 126.588 131.971 129.987 132.82C133.385 133.669 136.783 134.518 140.182 135.791C143.58 137.064 146.554 139.185 149.102 142.58C151.651 145.975 152.926 149.794 152.926 154.886C151.651 170.587 139.757 179.074 116.393 179.074Z" fill="#332C28"/>
<path d="M176.714 79.3525C182.236 79.3525 186.484 80.2012 189.883 81.8986C192.856 83.596 194.555 86.5664 194.555 90.8099C194.555 98.4481 188.608 102.267 176.714 102.267C164.82 102.267 158.873 98.4481 158.873 90.8099C159.297 83.1716 165.245 79.3525 176.714 79.3525ZM194.131 112.451V174.83C194.131 175.679 191.582 176.528 186.909 176.952C182.236 177.376 177.139 177.801 172.041 177.801C166.944 177.801 163.545 177.376 162.271 176.952C160.997 176.528 160.147 175.679 160.147 174.406V114.573C160.147 112.876 162.696 110.754 167.369 109.057C172.041 107.359 177.564 106.511 183.086 106.511C190.307 106.511 194.131 108.632 194.131 112.451Z" fill="#332C28"/>
<path d="M253.177 176.952C251.478 178.225 248.079 179.074 242.982 179.074C237.884 179.074 233.212 178.649 229.388 177.801C225.99 176.952 222.592 175.679 219.193 173.557C212.821 169.314 209.848 160.827 209.848 147.672V127.728H203.901C203.051 127.728 202.202 126.879 201.352 124.757C200.502 122.636 200.502 120.09 200.502 116.695C200.502 113.3 200.927 110.33 202.202 107.784C203.051 105.238 204.75 103.964 206.45 103.964H210.697V89.1124C210.697 86.5663 213.246 84.4446 218.344 82.7472C223.441 81.0499 228.539 80.2012 233.212 80.2012C240.858 80.2012 244.681 81.8986 244.681 85.7177V103.964H254.026C256.15 103.964 257.425 106.935 257.425 113.3C257.425 117.544 257 120.938 256.15 123.484C255.301 126.03 254.026 127.303 252.327 127.303H244.681V150.642C244.681 152.764 245.531 154.462 247.654 155.31C249.778 156.159 251.478 156.583 252.752 156.583C254.026 156.583 255.301 157.432 255.301 158.705C255.726 159.978 255.726 162.1 255.726 165.07C255.726 171.86 254.876 175.254 253.177 176.952Z" fill="#332C28"/>
</g>
<defs>
<clipPath id="clip0_34_377">
<rect width="257" height="190.955" fill="white"/>
</clipPath>
</defs>
</svg>
