<svg width="172" height="133" viewBox="0 0 172 133" fill="none" xmlns="http://www.w3.org/2000/svg">
<g clip-path="url(#clip0_91_825)">
<path d="M47.0058 27.74C47.4404 27.74 47.7301 27.74 48.0198 27.74C53.1624 27.74 58.2326 27.74 63.3751 27.74C63.7373 27.74 64.1719 27.5955 64.4616 27.3788C69.3869 23.2611 75.1089 20.8772 81.4104 20.0826C87.8568 19.2157 94.0858 20.1548 100.025 22.8999C102.488 23.9835 104.733 25.5005 106.761 27.2343C107.051 27.5232 107.558 27.74 107.993 27.74C113.208 27.74 118.423 27.74 123.638 27.74C123.927 27.74 124.217 27.74 124.579 27.74C124.362 28.1012 124.29 28.3179 124.145 28.5346C122.841 30.6295 121.537 32.6522 120.233 34.7472C119.944 35.1806 119.944 35.4696 120.233 35.903C126.39 44.1383 125.666 55.1909 118.423 62.5594C114.149 66.8937 108.862 68.9164 102.705 68.5552C97.5625 68.2663 93.2167 66.3158 89.5227 62.7761C89.3778 62.6316 89.1605 62.4871 88.9433 62.2704C87.8568 64.7988 86.7703 67.3272 85.6114 70C84.4525 67.3272 83.3661 64.7988 82.2796 62.4149C80.831 63.4985 79.4548 64.6543 78.0062 65.5934C69.3869 71.0836 57.291 68.8442 51.1343 60.6811C45.4123 53.0238 45.4123 43.2714 51.2068 35.6141C51.4965 35.1806 51.4965 34.8917 51.2068 34.5305C49.903 32.291 48.5268 30.1239 47.0058 27.74ZM67.3588 32.291C58.5947 32.291 51.4241 39.3705 51.4241 48.1115C51.4241 56.8524 58.5947 64.0764 67.3588 64.0764C76.123 64.0764 83.2936 56.9969 83.2936 48.1837C83.3661 39.4427 76.1954 32.291 67.3588 32.291ZM103.936 32.291C95.1723 32.2188 88.0016 39.2983 87.9292 48.1115C87.8568 56.7802 95.0274 64.0764 103.864 64.1486C112.628 64.2209 119.871 57.0692 119.871 48.256C119.799 39.4427 112.773 32.3633 103.936 32.291ZM85.6114 38.7926C88.8708 33.0134 93.6513 29.4015 100.098 28.0289C92.1302 23.0444 79.5272 22.9722 71.3425 28.0289C77.7165 29.5459 82.4245 33.0857 85.6114 38.7926Z" fill="white"/>
<path d="M67.3589 37.4202C73.2982 37.4202 78.1511 42.2602 78.1511 48.1838C78.1511 54.1075 73.2982 58.9475 67.3589 58.9475C61.4195 58.9475 56.6391 54.1075 56.5667 48.1838C56.5667 42.2602 61.4195 37.4202 67.3589 37.4202ZM67.3589 41.9712C63.9546 41.9712 61.1298 44.7886 61.1298 48.1838C61.1298 51.5791 63.9546 54.3964 67.3589 54.3964C70.7631 54.3964 73.6603 51.5791 73.5879 48.1116C73.5879 44.7163 70.7631 41.9712 67.3589 41.9712Z" fill="white"/>
<path d="M114.656 48.1837C114.656 54.1795 109.731 59.0196 103.792 58.9473C97.8523 58.8751 92.9994 54.0351 93.0718 48.1114C93.0718 42.1878 97.9971 37.3477 103.936 37.42C109.876 37.4922 114.656 42.26 114.656 48.1837ZM103.936 41.9711C100.532 41.8988 97.7074 44.6439 97.5626 48.1114C97.4177 51.5067 100.315 54.3963 103.792 54.4685C107.196 54.5407 110.021 51.7234 110.093 48.3281C110.166 44.8607 107.413 42.0433 103.936 41.9711Z" fill="white"/>
<path d="M67.3588 50.5676C66.0551 50.5676 64.9686 49.484 64.9686 48.1837C64.9686 46.8834 66.0551 45.7998 67.3588 45.7998C68.6626 45.7998 69.8215 46.8834 69.7491 48.1837C69.7491 49.484 68.6626 50.5676 67.3588 50.5676Z" fill="white"/>
<path d="M103.936 50.5676C102.633 50.5676 101.546 49.5563 101.546 48.256C101.546 46.9557 102.633 45.8721 103.936 45.8721C105.24 45.8721 106.327 46.9557 106.254 48.256C106.327 49.484 105.24 50.5676 103.936 50.5676Z" fill="white"/>
<path d="M38.966 51.001C38.966 25.2838 59.9709 4.33437 85.7563 4.33437C111.542 4.33437 132.547 25.2838 132.547 51.001C132.547 56.9247 131.46 62.6316 129.287 68.0495H133.923C135.879 62.6316 136.82 56.9247 136.82 51.001C136.82 22.8999 113.932 0 85.7563 0C57.5807 0 34.6201 22.8999 34.6201 51.001C34.6201 56.8524 35.6341 62.5593 37.5174 68.0495H42.1529C40.0524 62.5593 38.966 56.8524 38.966 51.001Z" fill="white"/>
</g>
<path d="M12.8406 81.256V84.424H9.45662V94H5.46062V84.424H2.11262V81.256H12.8406ZM17.9204 85.72C18.3284 85.132 18.8264 84.664 19.4144 84.316C20.0024 83.956 20.6144 83.776 21.2504 83.776V88.042H20.1164C19.3604 88.042 18.8024 88.174 18.4424 88.438C18.0944 88.702 17.9204 89.17 17.9204 89.842V94H13.9244V83.848H17.9204V85.72ZM21.7868 88.924C21.7868 87.856 21.9668 86.932 22.3268 86.152C22.6988 85.36 23.2028 84.76 23.8388 84.352C24.4748 83.932 25.1888 83.722 25.9808 83.722C26.6408 83.722 27.2108 83.86 27.6908 84.136C28.1708 84.4 28.5368 84.766 28.7888 85.234V83.848H32.7668V94H28.7888V92.614C28.5368 93.082 28.1708 93.454 27.6908 93.73C27.2108 93.994 26.6408 94.126 25.9808 94.126C25.1888 94.126 24.4748 93.922 23.8388 93.514C23.2028 93.094 22.6988 92.494 22.3268 91.714C21.9668 90.922 21.7868 89.992 21.7868 88.924ZM28.7888 88.924C28.7888 88.384 28.6508 87.964 28.3748 87.664C28.0988 87.364 27.7448 87.214 27.3128 87.214C26.8808 87.214 26.5268 87.364 26.2508 87.664C25.9748 87.964 25.8368 88.384 25.8368 88.924C25.8368 89.464 25.9748 89.884 26.2508 90.184C26.5268 90.484 26.8808 90.634 27.3128 90.634C27.7448 90.634 28.0988 90.484 28.3748 90.184C28.6508 89.884 28.7888 89.464 28.7888 88.924ZM39.7091 90.202L41.3291 83.848H45.5771L42.1931 94H37.2071L33.8231 83.848H38.0711L39.7091 90.202ZM56.4653 88.834C56.4653 89.11 56.4473 89.374 56.4113 89.626H49.9853C50.0453 90.502 50.4113 90.94 51.0833 90.94C51.5153 90.94 51.8273 90.742 52.0193 90.346H56.2493C56.1053 91.066 55.7993 91.714 55.3313 92.29C54.8753 92.854 54.2933 93.304 53.5853 93.64C52.8893 93.964 52.1213 94.126 51.2813 94.126C50.2733 94.126 49.3733 93.916 48.5813 93.496C47.8013 93.076 47.1893 92.476 46.7453 91.696C46.3133 90.904 46.0973 89.98 46.0973 88.924C46.0973 87.868 46.3133 86.95 46.7453 86.17C47.1893 85.378 47.8013 84.772 48.5813 84.352C49.3733 83.932 50.2733 83.722 51.2813 83.722C52.2893 83.722 53.1833 83.932 53.9633 84.352C54.7553 84.76 55.3673 85.348 55.7993 86.116C56.2433 86.884 56.4653 87.79 56.4653 88.834ZM52.4153 87.88C52.4153 87.544 52.3073 87.292 52.0913 87.124C51.8753 86.944 51.6053 86.854 51.2813 86.854C50.5733 86.854 50.1593 87.196 50.0393 87.88H52.4153ZM61.7251 80.68V94H57.7291V80.68H61.7251ZM73.3579 88.834C73.3579 89.11 73.3399 89.374 73.3039 89.626H66.8779C66.9379 90.502 67.3039 90.94 67.9759 90.94C68.4079 90.94 68.7199 90.742 68.9119 90.346H73.1419C72.9979 91.066 72.6919 91.714 72.2239 92.29C71.7679 92.854 71.1859 93.304 70.4779 93.64C69.7819 93.964 69.0139 94.126 68.1739 94.126C67.1659 94.126 66.2659 93.916 65.4739 93.496C64.6939 93.076 64.0819 92.476 63.6379 91.696C63.2059 90.904 62.9899 89.98 62.9899 88.924C62.9899 87.868 63.2059 86.95 63.6379 86.17C64.0819 85.378 64.6939 84.772 65.4739 84.352C66.2659 83.932 67.1659 83.722 68.1739 83.722C69.1819 83.722 70.0759 83.932 70.8559 84.352C71.6479 84.76 72.2599 85.348 72.6919 86.116C73.1359 86.884 73.3579 87.79 73.3579 88.834ZM69.3079 87.88C69.3079 87.544 69.1999 87.292 68.9839 87.124C68.7679 86.944 68.4979 86.854 68.1739 86.854C67.4659 86.854 67.0519 87.196 66.9319 87.88H69.3079ZM78.6177 85.72C79.0257 85.132 79.5237 84.664 80.1117 84.316C80.6997 83.956 81.3117 83.776 81.9477 83.776V88.042H80.8137C80.0577 88.042 79.4997 88.174 79.1397 88.438C78.7917 88.702 78.6177 89.17 78.6177 89.842V94H74.6217V83.848H78.6177V85.72ZM87.542 94.126C86.582 94.126 85.73 93.97 84.986 93.658C84.254 93.346 83.672 92.914 83.24 92.362C82.808 91.81 82.562 91.186 82.502 90.49H86.336C86.384 90.79 86.51 91.012 86.714 91.156C86.93 91.3 87.2 91.372 87.524 91.372C87.728 91.372 87.89 91.33 88.01 91.246C88.13 91.15 88.19 91.036 88.19 90.904C88.19 90.676 88.064 90.514 87.812 90.418C87.56 90.322 87.134 90.214 86.534 90.094C85.802 89.95 85.196 89.794 84.716 89.626C84.248 89.458 83.834 89.17 83.474 88.762C83.126 88.354 82.952 87.79 82.952 87.07C82.952 86.446 83.114 85.882 83.438 85.378C83.774 84.862 84.266 84.46 84.914 84.172C85.562 83.872 86.348 83.722 87.272 83.722C88.64 83.722 89.708 84.058 90.476 84.73C91.256 85.402 91.724 86.278 91.88 87.358H88.334C88.274 87.082 88.148 86.872 87.956 86.728C87.764 86.572 87.506 86.494 87.182 86.494C86.978 86.494 86.822 86.536 86.714 86.62C86.606 86.692 86.552 86.806 86.552 86.962C86.552 87.166 86.678 87.322 86.93 87.43C87.182 87.526 87.584 87.628 88.136 87.736C88.868 87.88 89.486 88.042 89.99 88.222C90.494 88.402 90.932 88.714 91.304 89.158C91.676 89.59 91.862 90.19 91.862 90.958C91.862 91.558 91.688 92.098 91.34 92.578C90.992 93.058 90.488 93.436 89.828 93.712C89.18 93.988 88.418 94.126 87.542 94.126ZM96.5079 79.546L96.2739 83.776H93.6099L93.3579 79.546H96.5079ZM100.91 87.61C100.91 86.35 101.162 85.228 101.666 84.244C102.182 83.26 102.914 82.498 103.862 81.958C104.81 81.406 105.926 81.13 107.21 81.13C108.314 81.13 109.298 81.34 110.162 81.76C111.038 82.168 111.746 82.75 112.286 83.506C112.838 84.262 113.204 85.144 113.384 86.152H109.172C108.98 85.732 108.704 85.408 108.344 85.18C107.996 84.94 107.594 84.82 107.138 84.82C106.466 84.82 105.932 85.072 105.536 85.576C105.152 86.08 104.96 86.758 104.96 87.61C104.96 88.462 105.152 89.14 105.536 89.644C105.932 90.148 106.466 90.4 107.138 90.4C107.594 90.4 107.996 90.286 108.344 90.058C108.704 89.818 108.98 89.488 109.172 89.068H113.384C113.204 90.076 112.838 90.958 112.286 91.714C111.746 92.47 111.038 93.058 110.162 93.478C109.298 93.886 108.314 94.09 107.21 94.09C105.926 94.09 104.81 93.82 103.862 93.28C102.914 92.728 102.182 91.96 101.666 90.976C101.162 89.992 100.91 88.87 100.91 87.61ZM121.933 83.776C123.097 83.776 124.003 84.166 124.651 84.946C125.311 85.726 125.641 86.782 125.641 88.114V94H121.663V88.618C121.663 88.138 121.531 87.76 121.267 87.484C121.015 87.196 120.673 87.052 120.241 87.052C119.797 87.052 119.449 87.196 119.197 87.484C118.945 87.76 118.819 88.138 118.819 88.618V94H114.823V80.68H118.819V85.396C119.131 84.916 119.545 84.526 120.061 84.226C120.589 83.926 121.213 83.776 121.933 83.776ZM132.198 94.126C131.178 94.126 130.26 93.916 129.444 93.496C128.628 93.076 127.986 92.476 127.518 91.696C127.062 90.904 126.834 89.98 126.834 88.924C126.834 87.868 127.062 86.95 127.518 86.17C127.986 85.378 128.628 84.772 129.444 84.352C130.26 83.932 131.178 83.722 132.198 83.722C133.218 83.722 134.136 83.932 134.952 84.352C135.768 84.772 136.404 85.378 136.86 86.17C137.328 86.95 137.562 87.868 137.562 88.924C137.562 89.98 137.328 90.904 136.86 91.696C136.404 92.476 135.768 93.076 134.952 93.496C134.136 93.916 133.218 94.126 132.198 94.126ZM132.198 90.67C132.57 90.67 132.882 90.526 133.134 90.238C133.386 89.938 133.512 89.5 133.512 88.924C133.512 88.348 133.386 87.916 133.134 87.628C132.882 87.328 132.57 87.178 132.198 87.178C131.826 87.178 131.514 87.328 131.262 87.628C131.01 87.916 130.884 88.348 130.884 88.924C130.884 89.5 131.004 89.938 131.244 90.238C131.496 90.526 131.814 90.67 132.198 90.67ZM140.833 83.038C140.137 83.038 139.579 82.852 139.159 82.48C138.739 82.108 138.529 81.64 138.529 81.076C138.529 80.5 138.739 80.026 139.159 79.654C139.579 79.27 140.137 79.078 140.833 79.078C141.517 79.078 142.069 79.27 142.489 79.654C142.909 80.026 143.119 80.5 143.119 81.076C143.119 81.64 142.909 82.108 142.489 82.48C142.069 82.852 141.517 83.038 140.833 83.038ZM142.813 83.848V94H138.817V83.848H142.813ZM144.078 88.924C144.078 87.868 144.294 86.95 144.726 86.17C145.17 85.378 145.782 84.772 146.562 84.352C147.354 83.932 148.254 83.722 149.262 83.722C150.582 83.722 151.692 84.094 152.592 84.838C153.504 85.582 154.08 86.614 154.32 87.934H150.09C149.934 87.406 149.628 87.142 149.172 87.142C148.848 87.142 148.59 87.292 148.398 87.592C148.218 87.892 148.128 88.336 148.128 88.924C148.128 89.512 148.218 89.956 148.398 90.256C148.59 90.556 148.848 90.706 149.172 90.706C149.628 90.706 149.934 90.442 150.09 89.914H154.32C154.08 91.234 153.504 92.266 152.592 93.01C151.692 93.754 150.582 94.126 149.262 94.126C148.254 94.126 147.354 93.916 146.562 93.496C145.782 93.076 145.17 92.476 144.726 91.696C144.294 90.904 144.078 89.98 144.078 88.924ZM165.415 88.834C165.415 89.11 165.397 89.374 165.361 89.626H158.935C158.995 90.502 159.361 90.94 160.033 90.94C160.465 90.94 160.777 90.742 160.969 90.346H165.199C165.055 91.066 164.749 91.714 164.281 92.29C163.825 92.854 163.243 93.304 162.535 93.64C161.839 93.964 161.071 94.126 160.231 94.126C159.223 94.126 158.323 93.916 157.531 93.496C156.751 93.076 156.139 92.476 155.695 91.696C155.263 90.904 155.047 89.98 155.047 88.924C155.047 87.868 155.263 86.95 155.695 86.17C156.139 85.378 156.751 84.772 157.531 84.352C158.323 83.932 159.223 83.722 160.231 83.722C161.239 83.722 162.133 83.932 162.913 84.352C163.705 84.76 164.317 85.348 164.749 86.116C165.193 86.884 165.415 87.79 165.415 88.834ZM161.365 87.88C161.365 87.544 161.257 87.292 161.041 87.124C160.825 86.944 160.555 86.854 160.231 86.854C159.523 86.854 159.109 87.196 158.989 87.88H161.365ZM65.9209 113.01C68.1289 111.354 69.8329 109.872 71.0329 108.564C72.2449 107.244 72.8509 105.954 72.8509 104.694C72.8509 103.866 72.6409 103.206 72.2209 102.714C71.8129 102.21 71.1409 101.958 70.2049 101.958C69.2929 101.958 68.5849 102.246 68.0809 102.822C67.5889 103.386 67.3129 104.142 67.2529 105.09H66.0289C66.1009 103.758 66.5089 102.726 67.2529 101.994C68.0089 101.25 68.9929 100.878 70.2049 100.878C71.3689 100.878 72.3109 101.208 73.0309 101.868C73.7509 102.516 74.1109 103.44 74.1109 104.64C74.1109 106.092 73.5049 107.502 72.2929 108.87C71.0929 110.226 69.6109 111.552 67.8469 112.848H74.5069V113.91H65.9209V113.01ZM76.4737 107.43C76.4737 105.366 76.7917 103.764 77.4277 102.624C78.0637 101.484 79.2037 100.914 80.8477 100.914C82.4917 100.914 83.6317 101.484 84.2677 102.624C84.9037 103.764 85.2217 105.366 85.2217 107.43C85.2217 109.53 84.9037 111.156 84.2677 112.308C83.6317 113.46 82.4917 114.036 80.8477 114.036C79.1917 114.036 78.0457 113.46 77.4097 112.308C76.7857 111.156 76.4737 109.53 76.4737 107.43ZM83.9797 107.43C83.9797 106.314 83.9017 105.372 83.7457 104.604C83.5897 103.836 83.2837 103.218 82.8277 102.75C82.3717 102.282 81.7117 102.048 80.8477 102.048C79.9837 102.048 79.3237 102.282 78.8677 102.75C78.4117 103.218 78.1057 103.836 77.9497 104.604C77.7937 105.372 77.7157 106.314 77.7157 107.43C77.7157 108.582 77.7937 109.548 77.9497 110.328C78.1057 111.096 78.4117 111.714 78.8677 112.182C79.3237 112.65 79.9837 112.884 80.8477 112.884C81.7117 112.884 82.3717 112.65 82.8277 112.182C83.2837 111.714 83.5897 111.096 83.7457 110.328C83.9017 109.548 83.9797 108.582 83.9797 107.43ZM87.3135 113.01C89.5215 111.354 91.2255 109.872 92.4255 108.564C93.6375 107.244 94.2435 105.954 94.2435 104.694C94.2435 103.866 94.0335 103.206 93.6135 102.714C93.2055 102.21 92.5335 101.958 91.5975 101.958C90.6855 101.958 89.9775 102.246 89.4735 102.822C88.9815 103.386 88.7055 104.142 88.6455 105.09H87.4215C87.4935 103.758 87.9015 102.726 88.6455 101.994C89.4015 101.25 90.3855 100.878 91.5975 100.878C92.7615 100.878 93.7035 101.208 94.4235 101.868C95.1435 102.516 95.5035 103.44 95.5035 104.64C95.5035 106.092 94.8975 107.502 93.6855 108.87C92.4855 110.226 91.0035 111.552 89.2395 112.848H95.8995V113.91H87.3135V113.01ZM97.6143 113.01C99.8223 111.354 101.526 109.872 102.726 108.564C103.938 107.244 104.544 105.954 104.544 104.694C104.544 103.866 104.334 103.206 103.914 102.714C103.506 102.21 102.834 101.958 101.898 101.958C100.986 101.958 100.278 102.246 99.7743 102.822C99.2823 103.386 99.0063 104.142 98.9463 105.09H97.7223C97.7943 103.758 98.2023 102.726 98.9463 101.994C99.7023 101.25 100.686 100.878 101.898 100.878C103.062 100.878 104.004 101.208 104.724 101.868C105.444 102.516 105.804 103.44 105.804 104.64C105.804 106.092 105.198 107.502 103.986 108.87C102.786 110.226 101.304 111.552 99.5403 112.848H106.2V113.91H97.6143V113.01Z" fill="white"/>
<defs>
<clipPath id="clip0_91_825">
<rect width="102.2" height="70" fill="white" transform="translate(34.6201)"/>
</clipPath>
</defs>
</svg>
